<?xml version="1.0" encoding="UTF-8" standalone="no"?>
<!DOCTYPE svg PUBLIC "-//W3C//DTD SVG 1.1//EN"
 "http://www.w3.org/Graphics/SVG/1.1/DTD/svg11.dtd">
<!-- Generated by graphviz version 5.0.0 (20220707.1540)
 -->
<!-- Title: dependencies Pages: 1 -->
<svg width="290pt" height="247pt"
 viewBox="0.00 0.00 290.00 246.80" xmlns="http://www.w3.org/2000/svg" xmlns:xlink="http://www.w3.org/1999/xlink">
<g id="graph0" class="graph" transform="scale(1 1) rotate(0) translate(4 242.8)">
<title>dependencies</title>
<polygon fill="white" stroke="transparent" points="-4,4 -4,-242.8 286,-242.8 286,4 -4,4"/>
<text text-anchor="middle" x="141" y="-8.2" font-family="sans-serif" font-size="14.00">dependencies</text>
<g id="clust1" class="cluster">
<title>cluster_AuthModule</title>
<polygon fill="none" stroke="black" stroke-dasharray="1,5" points="8,-32.8 8,-230.8 274,-230.8 274,-32.8 8,-32.8"/>
</g>
<g id="clust6" class="cluster">
<title>cluster_AuthModule_providers</title>
<polygon fill="none" stroke="black" points="132,-40.8 132,-92.8 266,-92.8 266,-40.8 132,-40.8"/>
</g>
<g id="clust3" class="cluster">
<title>cluster_AuthModule_imports</title>
<polygon fill="none" stroke="black" points="16,-40.8 16,-92.8 124,-92.8 124,-40.8 16,-40.8"/>
</g>
<g id="clust4" class="cluster">
<title>cluster_AuthModule_exports</title>
<polygon fill="none" stroke="black" points="81,-170.8 81,-222.8 187,-222.8 187,-170.8 81,-170.8"/>
</g>
<!-- UsersModule -->
<g id="node1" class="node">
<title>UsersModule</title>
<polygon fill="#8dd3c7" stroke="black" points="115.94,-84.8 112.94,-88.8 91.94,-88.8 88.94,-84.8 24.06,-84.8 24.06,-48.8 115.94,-48.8 115.94,-84.8"/>
<text text-anchor="middle" x="70" y="-62.6" font-family="Times,serif" font-size="14.00">UsersModule</text>
</g>
<!-- AuthModule -->
<g id="node2" class="node">
<title>AuthModule</title>
<polygon fill="#8dd3c7" stroke="black" points="177.55,-149.8 174.55,-153.8 153.55,-153.8 150.55,-149.8 90.45,-149.8 90.45,-113.8 177.55,-113.8 177.55,-149.8"/>
<text text-anchor="middle" x="134" y="-127.6" font-family="Times,serif" font-size="14.00">AuthModule</text>
</g>
<!-- UsersModule&#45;&gt;AuthModule -->
<g id="edge1" class="edge">
<title>UsersModule&#45;&gt;AuthModule</title>
<path fill="none" stroke="black" d="M102.97,-84.91C102.97,-84.91 102.97,-103.79 102.97,-103.79"/>
<polygon fill="black" stroke="black" points="99.47,-103.79 102.97,-113.79 106.47,-103.79 99.47,-103.79"/>
</g>
<!-- AuthService  -->
<g id="node3" class="node">
<title>AuthService </title>
<polygon fill="#fb8072" stroke="black" points="178.98,-214.8 89.02,-214.8 89.02,-178.8 178.98,-178.8 178.98,-214.8"/>
<text text-anchor="middle" x="134" y="-192.6" font-family="Times,serif" font-size="14.00">AuthService </text>
</g>
<!-- AuthModule&#45;&gt;AuthService  -->
<g id="edge2" class="edge">
<title>AuthModule&#45;&gt;AuthService </title>
<path fill="none" stroke="black" stroke-dasharray="5,2" d="M134,-149.91C134,-149.91 134,-168.79 134,-168.79"/>
<polygon fill="black" stroke="black" points="130.5,-168.79 134,-178.79 137.5,-168.79 130.5,-168.79"/>
</g>
<!-- AuthService -->
<g id="node4" class="node">
<title>AuthService</title>
<ellipse fill="#fdb462" stroke="black" cx="199" cy="-66.8" rx="59.11" ry="18"/>
<text text-anchor="middle" x="199" y="-62.6" font-family="Times,serif" font-size="14.00">AuthService</text>
</g>
<!-- AuthService&#45;&gt;AuthModule -->
<g id="edge3" class="edge">
<title>AuthService&#45;&gt;AuthModule</title>
<path fill="none" stroke="black" d="M158.73,-80.27C158.73,-80.27 158.73,-103.66 158.73,-103.66"/>
<polygon fill="black" stroke="black" points="155.23,-103.66 158.73,-113.66 162.23,-103.66 155.23,-103.66"/>
</g>
</g>
</svg>
