<?xml version="1.0" encoding="UTF-8" standalone="no"?>
<!DOCTYPE svg PUBLIC "-//W3C//DTD SVG 1.1//EN"
 "http://www.w3.org/Graphics/SVG/1.1/DTD/svg11.dtd">
<!-- Generated by graphviz version 5.0.0 (20220707.1540)
 -->
<!-- Title: dependencies Pages: 1 -->
<svg width="670pt" height="334pt"
 viewBox="0.00 0.00 670.00 333.80" xmlns="http://www.w3.org/2000/svg" xmlns:xlink="http://www.w3.org/1999/xlink">
<g id="graph0" class="graph" transform="scale(1 1) rotate(0) translate(4 329.8)">
<title>dependencies</title>
<polygon fill="white" stroke="transparent" points="-4,4 -4,-329.8 666,-329.8 666,4 -4,4"/>
<text text-anchor="middle" x="331" y="-8.2" font-family="sans-serif" font-size="14.00">dependencies</text>
<g id="clust1" class="cluster">
<title>cluster_AppModule</title>
<polygon fill="none" stroke="black" stroke-dasharray="1,5" points="8,-108.8 8,-309.8 372,-309.8 372,-108.8 8,-108.8"/>
</g>
<g id="clust3" class="cluster">
<title>cluster_AppModule_imports</title>
<polygon fill="none" stroke="black" points="154,-116.8 154,-233.8 364,-233.8 364,-116.8 154,-116.8"/>
</g>
<g id="clust6" class="cluster">
<title>cluster_AppModule_providers</title>
<polygon fill="none" stroke="black" points="16,-181.8 16,-233.8 146,-233.8 146,-181.8 16,-181.8"/>
</g>
<g id="clust7" class="cluster">
<title>cluster_AuthModule</title>
<polygon fill="none" stroke="black" stroke-dasharray="1,5" points="380,-249.8 380,-317.8 644,-317.8 644,-249.8 380,-249.8"/>
</g>
<g id="clust10" class="cluster">
<title>cluster_AuthModule_exports</title>
<polygon fill="none" stroke="black" points="530,-257.8 530,-309.8 636,-309.8 636,-257.8 530,-257.8"/>
</g>
<g id="clust12" class="cluster">
<title>cluster_AuthModule_providers</title>
<polygon fill="none" stroke="black" points="388,-257.8 388,-309.8 522,-309.8 522,-257.8 388,-257.8"/>
</g>
<g id="clust13" class="cluster">
<title>cluster_CatsModule</title>
<polygon fill="none" stroke="black" stroke-dasharray="1,5" points="131,-32.8 131,-100.8 277,-100.8 277,-32.8 131,-32.8"/>
</g>
<g id="clust18" class="cluster">
<title>cluster_CatsModule_providers</title>
<polygon fill="none" stroke="black" points="139,-40.8 139,-92.8 269,-92.8 269,-40.8 139,-40.8"/>
</g>
<g id="clust19" class="cluster">
<title>cluster_UsersModule</title>
<polygon fill="none" stroke="black" stroke-dasharray="1,5" points="380,-173.8 380,-241.8 654,-241.8 654,-173.8 380,-173.8"/>
</g>
<g id="clust22" class="cluster">
<title>cluster_UsersModule_exports</title>
<polygon fill="none" stroke="black" points="536,-181.8 536,-233.8 646,-233.8 646,-181.8 536,-181.8"/>
</g>
<g id="clust24" class="cluster">
<title>cluster_UsersModule_providers</title>
<polygon fill="none" stroke="black" points="388,-181.8 388,-233.8 528,-233.8 528,-181.8 388,-181.8"/>
</g>
<!-- AuthModule -->
<g id="node1" class="node">
<title>AuthModule</title>
<polygon fill="#8dd3c7" stroke="black" points="354.55,-225.8 351.55,-229.8 330.55,-229.8 327.55,-225.8 267.45,-225.8 267.45,-189.8 354.55,-189.8 354.55,-225.8"/>
<text text-anchor="middle" x="311" y="-203.6" font-family="Times,serif" font-size="14.00">AuthModule</text>
</g>
<!-- AppModule -->
<g id="node4" class="node">
<title>AppModule</title>
<polygon fill="#8dd3c7" stroke="black" points="264.66,-301.8 261.66,-305.8 240.66,-305.8 237.66,-301.8 181.34,-301.8 181.34,-265.8 264.66,-265.8 264.66,-301.8"/>
<text text-anchor="middle" x="223" y="-279.6" font-family="Times,serif" font-size="14.00">AppModule</text>
</g>
<!-- AuthModule&#45;&gt;AppModule -->
<g id="edge1" class="edge">
<title>AuthModule&#45;&gt;AppModule</title>
<path fill="none" stroke="black" d="M267.27,-213.8C260.76,-213.8 256.18,-213.8 256.18,-213.8 256.18,-213.8 256.18,-255.77 256.18,-255.77"/>
<polygon fill="black" stroke="black" points="252.68,-255.77 256.18,-265.77 259.68,-255.77 252.68,-255.77"/>
</g>
<!-- AuthService  -->
<g id="node6" class="node">
<title>AuthService </title>
<polygon fill="#fb8072" stroke="black" points="627.98,-301.8 538.02,-301.8 538.02,-265.8 627.98,-265.8 627.98,-301.8"/>
<text text-anchor="middle" x="583" y="-279.6" font-family="Times,serif" font-size="14.00">AuthService </text>
</g>
<!-- AuthModule&#45;&gt;AuthService  -->
<g id="edge6" class="edge">
<title>AuthModule&#45;&gt;AuthService </title>
<path fill="none" stroke="black" stroke-dasharray="5,2" d="M296.41,-225.91C296.41,-235.7 296.41,-245.8 296.41,-245.8 296.41,-245.8 586.03,-245.8 586.03,-245.8 586.03,-245.8 586.03,-255.69 586.03,-255.69"/>
<polygon fill="black" stroke="black" points="582.53,-255.69 586.03,-265.69 589.53,-255.69 582.53,-255.69"/>
</g>
<!-- CatsModule -->
<g id="node2" class="node">
<title>CatsModule</title>
<polygon fill="#8dd3c7" stroke="black" points="246.44,-160.8 243.44,-164.8 222.44,-164.8 219.44,-160.8 161.56,-160.8 161.56,-124.8 246.44,-124.8 246.44,-160.8"/>
<text text-anchor="middle" x="204" y="-138.6" font-family="Times,serif" font-size="14.00">CatsModule</text>
</g>
<!-- CatsModule&#45;&gt;AppModule -->
<g id="edge2" class="edge">
<title>CatsModule&#45;&gt;AppModule</title>
<path fill="none" stroke="black" d="M224.54,-160.94C224.54,-160.94 224.54,-255.73 224.54,-255.73"/>
<polygon fill="black" stroke="black" points="221.04,-255.72 224.54,-265.73 228.04,-255.73 221.04,-255.72"/>
</g>
<!-- UsersModule -->
<g id="node3" class="node">
<title>UsersModule</title>
<polygon fill="#8dd3c7" stroke="black" points="355.94,-160.8 352.94,-164.8 331.94,-164.8 328.94,-160.8 264.06,-160.8 264.06,-124.8 355.94,-124.8 355.94,-160.8"/>
<text text-anchor="middle" x="310" y="-138.6" font-family="Times,serif" font-size="14.00">UsersModule</text>
</g>
<!-- UsersModule&#45;&gt;AuthModule -->
<g id="edge5" class="edge">
<title>UsersModule&#45;&gt;AuthModule</title>
<path fill="none" stroke="black" d="M311,-160.91C311,-160.91 311,-179.79 311,-179.79"/>
<polygon fill="black" stroke="black" points="307.5,-179.79 311,-189.79 314.5,-179.79 307.5,-179.79"/>
</g>
<!-- UsersModule&#45;&gt;AppModule -->
<g id="edge3" class="edge">
<title>UsersModule&#45;&gt;AppModule</title>
<path fill="none" stroke="black" d="M264.25,-142.8C256.66,-142.8 251.2,-142.8 251.2,-142.8 251.2,-142.8 251.2,-255.66 251.2,-255.66"/>
<polygon fill="black" stroke="black" points="247.7,-255.66 251.2,-265.66 254.7,-255.66 247.7,-255.66"/>
</g>
<!-- UsersService  -->
<g id="node9" class="node">
<title>UsersService </title>
<polygon fill="#fb8072" stroke="black" points="637.86,-225.8 544.14,-225.8 544.14,-189.8 637.86,-189.8 637.86,-225.8"/>
<text text-anchor="middle" x="591" y="-203.6" font-family="Times,serif" font-size="14.00">UsersService </text>
</g>
<!-- UsersModule&#45;&gt;UsersService  -->
<g id="edge9" class="edge">
<title>UsersModule&#45;&gt;UsersService </title>
<path fill="none" stroke="black" stroke-dasharray="5,2" d="M355.77,-136.8C435.4,-136.8 591,-136.8 591,-136.8 591,-136.8 591,-179.52 591,-179.52"/>
<polygon fill="black" stroke="black" points="587.5,-179.52 591,-189.52 594.5,-179.52 587.5,-179.52"/>
</g>
<!-- AppService -->
<g id="node5" class="node">
<title>AppService</title>
<ellipse fill="#fdb462" stroke="black" cx="81" cy="-207.8" rx="56.75" ry="18"/>
<text text-anchor="middle" x="81" y="-203.6" font-family="Times,serif" font-size="14.00">AppService</text>
</g>
<!-- AppService&#45;&gt;AppModule -->
<g id="edge4" class="edge">
<title>AppService&#45;&gt;AppModule</title>
<path fill="none" stroke="black" d="M134.45,-201.8C167.19,-201.8 202.85,-201.8 202.85,-201.8 202.85,-201.8 202.85,-255.6 202.85,-255.6"/>
<polygon fill="black" stroke="black" points="199.35,-255.6 202.85,-265.6 206.35,-255.6 199.35,-255.6"/>
</g>
<!-- AuthService -->
<g id="node7" class="node">
<title>AuthService</title>
<ellipse fill="#fdb462" stroke="black" cx="455" cy="-283.8" rx="59.11" ry="18"/>
<text text-anchor="middle" x="455" y="-279.6" font-family="Times,serif" font-size="14.00">AuthService</text>
</g>
<!-- AuthService&#45;&gt;AuthModule -->
<g id="edge7" class="edge">
<title>AuthService&#45;&gt;AuthModule</title>
<path fill="none" stroke="black" d="M395.6,-283.8C361.58,-283.8 325.59,-283.8 325.59,-283.8 325.59,-283.8 325.59,-235.81 325.59,-235.81"/>
<polygon fill="black" stroke="black" points="329.09,-235.81 325.59,-225.81 322.09,-235.81 329.09,-235.81"/>
</g>
<!-- CatsService -->
<g id="node8" class="node">
<title>CatsService</title>
<ellipse fill="#fdb462" stroke="black" cx="204" cy="-66.8" rx="57.32" ry="18"/>
<text text-anchor="middle" x="204" y="-62.6" font-family="Times,serif" font-size="14.00">CatsService</text>
</g>
<!-- CatsService&#45;&gt;CatsModule -->
<g id="edge8" class="edge">
<title>CatsService&#45;&gt;CatsModule</title>
<path fill="none" stroke="black" d="M204,-84.81C204,-84.81 204,-114.65 204,-114.65"/>
<polygon fill="black" stroke="black" points="200.5,-114.65 204,-124.65 207.5,-114.65 200.5,-114.65"/>
</g>
<!-- UsersService -->
<g id="node10" class="node">
<title>UsersService</title>
<ellipse fill="#fdb462" stroke="black" cx="458" cy="-207.8" rx="61.97" ry="18"/>
<text text-anchor="middle" x="458" y="-203.6" font-family="Times,serif" font-size="14.00">UsersService</text>
</g>
<!-- UsersService&#45;&gt;UsersModule -->
<g id="edge10" class="edge">
<title>UsersService&#45;&gt;UsersModule</title>
<path fill="none" stroke="black" d="M458,-189.78C458,-172.43 458,-148.8 458,-148.8 458,-148.8 366.02,-148.8 366.02,-148.8"/>
<polygon fill="black" stroke="black" points="366.02,-145.3 356.02,-148.8 366.02,-152.3 366.02,-145.3"/>
</g>
</g>
</svg>
