<?xml version="1.0" encoding="UTF-8" standalone="no"?>
<!DOCTYPE svg PUBLIC "-//W3C//DTD SVG 1.1//EN"
 "http://www.w3.org/Graphics/SVG/1.1/DTD/svg11.dtd">
<!-- Generated by graphviz version 5.0.0 (20220707.1540)
 -->
<!-- Title: dependencies Pages: 1 -->
<svg width="430pt" height="250pt"
 viewBox="0.00 0.00 430.00 249.80" xmlns="http://www.w3.org/2000/svg" xmlns:xlink="http://www.w3.org/1999/xlink">
<g id="graph0" class="graph" transform="scale(1 1) rotate(0) translate(4 245.8)">
<title>dependencies</title>
<polygon fill="white" stroke="transparent" points="-4,4 -4,-245.8 426,-245.8 426,4 -4,4"/>
<text text-anchor="middle" x="211" y="-8.2" font-family="sans-serif" font-size="14.00">dependencies</text>
<g id="clust1" class="cluster">
<title>cluster_AppModule</title>
<polygon fill="none" stroke="black" stroke-dasharray="1,5" points="8,-108.8 8,-233.8 372,-233.8 372,-108.8 8,-108.8"/>
</g>
<g id="clust3" class="cluster">
<title>cluster_AppModule_imports</title>
<polygon fill="none" stroke="black" points="154,-116.8 154,-168.8 364,-168.8 364,-116.8 154,-116.8"/>
</g>
<g id="clust6" class="cluster">
<title>cluster_AppModule_providers</title>
<polygon fill="none" stroke="black" points="16,-116.8 16,-168.8 146,-168.8 146,-116.8 16,-116.8"/>
</g>
<g id="clust13" class="cluster">
<title>cluster_CatsModule</title>
<polygon fill="none" stroke="black" stroke-dasharray="1,5" points="104,-32.8 104,-100.8 250,-100.8 250,-32.8 104,-32.8"/>
</g>
<g id="clust18" class="cluster">
<title>cluster_CatsModule_providers</title>
<polygon fill="none" stroke="black" points="112,-40.8 112,-92.8 242,-92.8 242,-40.8 112,-40.8"/>
</g>
<g id="clust19" class="cluster">
<title>cluster_UsersModule</title>
<polygon fill="none" stroke="black" stroke-dasharray="1,5" points="258,-32.8 258,-100.8 414,-100.8 414,-32.8 258,-32.8"/>
</g>
<g id="clust24" class="cluster">
<title>cluster_UsersModule_providers</title>
<polygon fill="none" stroke="black" points="266,-40.8 266,-92.8 406,-92.8 406,-40.8 266,-40.8"/>
</g>
<!-- CatsModule -->
<g id="node1" class="node">
<title>CatsModule</title>
<polygon fill="#8dd3c7" stroke="black" points="246.44,-160.8 243.44,-164.8 222.44,-164.8 219.44,-160.8 161.56,-160.8 161.56,-124.8 246.44,-124.8 246.44,-160.8"/>
<text text-anchor="middle" x="204" y="-138.6" font-family="Times,serif" font-size="14.00">CatsModule</text>
</g>
<!-- AppModule -->
<g id="node3" class="node">
<title>AppModule</title>
<polygon fill="#8dd3c7" stroke="black" points="245.66,-225.8 242.66,-229.8 221.66,-229.8 218.66,-225.8 162.34,-225.8 162.34,-189.8 245.66,-189.8 245.66,-225.8"/>
<text text-anchor="middle" x="204" y="-203.6" font-family="Times,serif" font-size="14.00">AppModule</text>
</g>
<!-- CatsModule&#45;&gt;AppModule -->
<g id="edge1" class="edge">
<title>CatsModule&#45;&gt;AppModule</title>
<path fill="none" stroke="black" d="M204,-160.91C204,-160.91 204,-179.79 204,-179.79"/>
<polygon fill="black" stroke="black" points="200.5,-179.79 204,-189.79 207.5,-179.79 200.5,-179.79"/>
</g>
<!-- UsersModule -->
<g id="node2" class="node">
<title>UsersModule</title>
<polygon fill="#8dd3c7" stroke="black" points="355.94,-160.8 352.94,-164.8 331.94,-164.8 328.94,-160.8 264.06,-160.8 264.06,-124.8 355.94,-124.8 355.94,-160.8"/>
<text text-anchor="middle" x="310" y="-138.6" font-family="Times,serif" font-size="14.00">UsersModule</text>
</g>
<!-- UsersModule&#45;&gt;AppModule -->
<g id="edge2" class="edge">
<title>UsersModule&#45;&gt;AppModule</title>
<path fill="none" stroke="black" d="M310,-160.91C310,-180.14 310,-207.8 310,-207.8 310,-207.8 255.89,-207.8 255.89,-207.8"/>
<polygon fill="black" stroke="black" points="255.89,-204.3 245.89,-207.8 255.89,-211.3 255.89,-204.3"/>
</g>
<!-- AppService -->
<g id="node4" class="node">
<title>AppService</title>
<ellipse fill="#fdb462" stroke="black" cx="81" cy="-142.8" rx="56.75" ry="18"/>
<text text-anchor="middle" x="81" y="-138.6" font-family="Times,serif" font-size="14.00">AppService</text>
</g>
<!-- AppService&#45;&gt;AppModule -->
<g id="edge3" class="edge">
<title>AppService&#45;&gt;AppModule</title>
<path fill="none" stroke="black" d="M81,-160.91C81,-180.14 81,-207.8 81,-207.8 81,-207.8 152.01,-207.8 152.01,-207.8"/>
<polygon fill="black" stroke="black" points="152.01,-211.3 162.01,-207.8 152.01,-204.3 152.01,-211.3"/>
</g>
<!-- CatsService -->
<g id="node5" class="node">
<title>CatsService</title>
<ellipse fill="#fdb462" stroke="black" cx="177" cy="-66.8" rx="57.32" ry="18"/>
<text text-anchor="middle" x="177" y="-62.6" font-family="Times,serif" font-size="14.00">CatsService</text>
</g>
<!-- CatsService&#45;&gt;CatsModule -->
<g id="edge4" class="edge">
<title>CatsService&#45;&gt;CatsModule</title>
<path fill="none" stroke="black" d="M197.97,-83.67C197.97,-83.67 197.97,-114.65 197.97,-114.65"/>
<polygon fill="black" stroke="black" points="194.47,-114.65 197.97,-124.65 201.47,-114.65 194.47,-114.65"/>
</g>
<!-- UsersService -->
<g id="node6" class="node">
<title>UsersService</title>
<ellipse fill="#fdb462" stroke="black" cx="336" cy="-66.8" rx="61.97" ry="18"/>
<text text-anchor="middle" x="336" y="-62.6" font-family="Times,serif" font-size="14.00">UsersService</text>
</g>
<!-- UsersService&#45;&gt;UsersModule -->
<g id="edge5" class="edge">
<title>UsersService&#45;&gt;UsersModule</title>
<path fill="none" stroke="black" d="M314.87,-84.05C314.87,-84.05 314.87,-114.56 314.87,-114.56"/>
<polygon fill="black" stroke="black" points="311.37,-114.56 314.87,-124.56 318.37,-114.56 311.37,-114.56"/>
</g>
</g>
</svg>
